<svg xmlns="http://www.w3.org/2000/svg" width="115.188" height="50.048" viewBox="0 0 582.938 253.281">
  <metadata><?xpacket begin="﻿" id="W5M0MpCehiHzreSzNTczkc9d"?>
<x:xmpmeta xmlns:x="adobe:ns:meta/" x:xmptk="Adobe XMP Core 5.6-c140 79.160451, 2017/05/06-01:08:21        ">
   <rdf:RDF xmlns:rdf="http://www.w3.org/1999/02/22-rdf-syntax-ns#">
      <rdf:Description rdf:about=""/>
   </rdf:RDF>
</x:xmpmeta>
                                                                                                    
                                                                                                    
                                                                                                    
                                                                                                    
                                                                                                    
                                                                                                    
                                                                                                    
                                                                                                    
                                                                                                    
                                                                                                    
                                                                                                    
                                                                                                    
                                                                                                    
                                                                                                    
                                                                                                    
                                                                                                    
                                                                                                    
                                                                                                    
                                                                                                    
                                                                                                    
                           
<?xpacket end="w"?></metadata>
<defs>
    <style>
      .cls-1, .cls-2 {
        fill: #fff;
      }

      .cls-1 {
        fill-rule: evenodd;
      }
    </style>
  </defs>
  <path id="BLU" class="cls-1" d="M172.944,162.928c0,13.9-7.326,21.07-27.526,21.07H30.43V129.041H142.088c19.757,0,30.856,3.041,30.856,22.591v11.3Zm-6.216-70.6c0,15.64-12.209,19.333-23.974,19.333H30.43V61.485H143.864c6.659,0,22.864,2.172,22.864,16.509V92.33ZM8.675,201.376H148.082c26.638,0,46.616-11.513,46.616-33.452V149.243c0-23.895-15.095-30.194-32.187-31.063v-0.869c19.534-1.955,25.972-13.468,25.972-24.764V79.08c0-18.029-9.324-34.973-42.621-34.973H8.675V201.376Zm224.526,0h146.51V184H254.956V44.107H233.2V201.376Zm169.726-39.534c0,31.931,16.427,41.272,57.272,41.272h74.143c40.845,0,57.272-9.341,57.272-41.272V44.107H569.86V161.624c0,15.206-5.328,24.112-34.852,24.112H459.533c-29.523,0-34.851-8.906-34.851-24.112V44.107H402.927V161.842Z" transform="translate(-8.688 -3)"/>
  <path id="Ristorante" class="cls-1" d="M8.71,255.974h3.745V245.3H30.719c3.4,0,5.5.522,5.5,4.741v5.936h3.515v-6.907c0-2.464-.917-4.405-4.738-5.077v-0.075c2.866-.261,5.082-1.306,5.082-5.115v-2.2c0-5.078-1.261-7.654-9.247-7.654H8.71v27.03Zm3.745-13.664V231.931H29.5c5.5,0,6.84.97,6.84,3.995v2.464c0,2.837-1.758,3.92-5.922,3.92H12.454Zm61.025,13.664h3.745v-27.03H73.479v27.03Zm37.234-6.533c0,5.9,4.814,6.832,10.278,6.832h10.394c5.54,0,11.119-.485,11.119-7.131v-1.755c0-4.592-3.057-6.645-10.355-6.645H121.068c-5.846,0-6.878-1.083-6.878-4.294,0-4.443,2.56-4.816,9.782-4.816h3.974c9.82,0,10.278.784,10.355,5.078h3.515v-0.934c0-4.816-2.331-7.131-11.616-7.131h-8.062c-7.719,0-11.463,1.382-11.463,7.542,0,7.168,3.744,7.84,15.169,7.84h7.107c4.662,0,6.037.859,6.037,4.256,0,3.883-1.6,5-7.03,5H120.342c-4.662,0-6.114-1.269-6.114-3.92v-1.9h-3.515v1.979Zm76.079,6.533h3.745V231.931h13.985v-2.987H172.808v2.987h13.984v24.043Zm79.942-8.437c0,4.7-2.9,5.749-6.5,5.749H245.069c-3.592,0-6.5-1.045-6.5-5.749V237.382c0-4.705,2.9-5.75,6.5-5.75h15.169c3.592,0,6.5,1.045,6.5,5.75v10.155Zm-31.906-1.382c0,6.833,2.369,10.118,9.858,10.118H260.62c7.489,0,9.858-3.285,9.858-10.118v-7.392c0-6.832-2.369-10.118-9.858-10.118H244.686c-7.489,0-9.858,3.286-9.858,10.118v7.392Zm68.741,9.819h3.745V245.3h18.264c3.4,0,5.5.522,5.5,4.741v5.936H334.6v-6.907c0-2.464-.917-4.405-4.738-5.077v-0.075c2.865-.261,5.081-1.306,5.081-5.115v-2.2c0-5.078-1.26-7.654-9.246-7.654H303.569v27.03Zm3.745-13.664V231.931h17.041c5.5,0,6.84.97,6.84,3.995v2.464c0,2.837-1.758,3.92-5.923,3.92H307.314Zm57.815,13.664h4.241l3.439-5.712h22.162l3.439,5.712h4.241l-16.43-27.03h-4.662Zm28.046-8.7h-18.57l9.285-15.344Zm40.2,8.7h3.745V232.229l25.333,23.745h5.579v-27.03h-3.745v23.745l-25.333-23.745h-5.579v27.03Zm79.44,0h3.745V231.931h13.984v-2.987H498.829v2.987h13.985v24.043Zm48.762,0H588.9v-2.986H565.32v-9.446h22.506v-2.987H565.32v-8.624h23.423v-2.987H561.576v27.03Z" transform="translate(-8.688 -3)"/>
  <rect class="cls-2" x="415.313" width="34" height="14"/>
  <rect class="cls-2" x="471.313" width="34" height="14"/>
  <rect class="cls-2" x="527.313" width="34" height="14"/>
</svg>
